<svg width="38" height="25" viewBox="0 0 38 25" fill="none" xmlns="http://www.w3.org/2000/svg">
<path fill-rule="evenodd" clip-rule="evenodd" d="M18.4688 0.842885C17.368 0.842885 16.3383 1.16986 15.4805 1.72911C15.3182 1.83536 15.1808 1.97101 15.0313 2.09288H18C18 2.09288 18.085 2.09388 18.4688 2.09288C19.6422 2.09288 20.6894 2.56536 21.4522 3.32824C22.2149 4.09099 22.6851 5.13826 22.6851 6.31163V7.27355V12.0538H14.25V10.8429H13V12.0538H12.209V13.465C12.209 14.1097 12.7113 14.6319 13.3369 14.6319H36.042C36.6676 14.6319 37.1724 14.1097 37.1724 13.465V12.3419V12.0538C37.1724 10.3813 37.1726 7.48301 37.1724 5.88439C37.1724 3.09151 34.9902 0.842885 32.2798 0.842885H31.5278H18.5273C18.5073 0.842635 18.4889 0.842885 18.4688 0.842885ZM8.55908 3.34288L8.98633 3.56261L12.8511 5.90148L17.0088 3.56261C17.1397 3.48261 17.4458 3.34288 17.4458 3.34288H16.9478H9.04736H8.55908ZM8 4.4049V8.53087C8 9.11812 8.46713 9.59288 9.04736 9.59288H16.9478C17.528 9.59288 17.9951 9.11812 17.9951 8.53087V4.42931L17.6533 4.6466L13.4663 7.18077C13.2686 7.29952 12.7265 7.29952 12.5288 7.18077L8.3418 4.6466L8 4.4049ZM1.75 5.75011V7.00011H4.25V5.75011H1.75ZM5.5 5.75011V7.00011H6.75V5.75011H5.5ZM0.5 8.25011V9.50011H1.75V8.25011H0.5ZM3 8.25011V9.50011H6.75V8.25011H3ZM25.5 15.8429V24.5001H26.75V15.8429H25.5ZM28 15.9991V22.0001H29.25V15.9991H28ZM21.75 16.2726V24.5001H23V16.2726H21.75Z" fill="white"/>
</svg>
