<svg width="30" height="30" viewBox="0 0 30 30" fill="none" xmlns="http://www.w3.org/2000/svg">
<path d="M27.05 20.4333L22.8167 19.9499C21.8 19.8333 20.8 20.1833 20.0833 20.8999L17.0167 23.9666C12.3 21.5666 8.43334 17.7166 6.03334 12.9833L9.11667 9.89993C9.83334 9.18327 10.1833 8.18327 10.0667 7.1666L9.58334 2.9666C9.38334 1.28327 7.96667 0.0166016 6.26667 0.0166016H3.38334C1.50001 0.0166016 -0.0666599 1.58327 0.0500067 3.4666C0.93334 17.6999 12.3167 29.0666 26.5333 29.9499C28.4167 30.0666 29.9833 28.4999 29.9833 26.6166V23.7333C30 22.0499 28.7333 20.6333 27.05 20.4333Z" fill="white"/>
</svg>
